<svg width="20" height="36" viewBox="0 0 20 36" fill="none" xmlns="http://www.w3.org/2000/svg">
<path d="M8.86191 21.7751H5.74323C2.53722 21.7751 0.934243 21.7751 0.262912 20.7613C-0.40842 19.7473 0.265028 18.3435 1.61193 15.5356L7.82918 2.57527C8.68095 0.799733 9.1066 -0.0880358 9.55343 0.0068876C10 0.101833 10 1.08013 10 3.03675V12.7683C10 13.286 10 13.545 10.1667 13.7059C10.3333 13.8667 10.6016 13.8667 11.1382 13.8667H14.2568C17.4629 13.8667 19.0658 13.8667 19.7371 14.8805C20.4084 15.8945 19.7351 17.2983 18.3882 20.106L12.1709 33.0664C11.3191 34.8421 10.8935 35.7298 10.4466 35.6349C10 35.54 10 34.5616 10 32.6051V22.8735C10 22.3557 10 22.0967 9.83341 21.9359C9.66679 21.7751 9.39842 21.7751 8.86191 21.7751Z" fill="#FFE000"/>
</svg>
