<svg width="20" height="20" viewBox="0 0 20 20" fill="none" xmlns="http://www.w3.org/2000/svg">
<g clip-path="url(#clip0_174_87)">
<path d="M14.7445 4.24306C14.5967 4.23143 14.4482 4.25049 14.3081 4.29904C14.1681 4.3476 14.0396 4.42461 13.9307 4.52522C13.8219 4.62583 13.735 4.74788 13.6756 4.88368C13.6162 5.01948 13.5856 5.1661 13.5856 5.31432C13.5856 5.46255 13.6162 5.60917 13.6756 5.74497C13.735 5.88077 13.8219 6.00281 13.9307 6.10343C14.0396 6.20404 14.1681 6.28105 14.3081 6.3296C14.4482 6.37816 14.5967 6.39722 14.7445 6.38558C15.0141 6.36436 15.2657 6.24229 15.4493 6.04373C15.6328 5.84517 15.7347 5.58472 15.7347 5.31432C15.7347 5.04393 15.6328 4.78348 15.4493 4.58492C15.2657 4.38636 15.0141 4.26429 14.7445 4.24306Z" fill="white" fill-opacity="0.5"/>
<path d="M9.9818 5.62939C9.09232 5.62939 8.22281 5.89316 7.48324 6.38733C6.74366 6.8815 6.16723 7.58388 5.82684 8.40566C5.48645 9.22743 5.39738 10.1317 5.57091 11.0041C5.74444 11.8765 6.17277 12.6778 6.80173 13.3068C7.43069 13.9357 8.23203 14.3641 9.10442 14.5376C9.97682 14.7111 10.8811 14.6221 11.7028 14.2817C12.5246 13.9413 13.227 13.3648 13.7212 12.6253C14.2153 11.8857 14.4791 11.0162 14.4791 10.1267C14.4791 8.93394 14.0053 7.79003 13.1619 6.94662C12.3185 6.10322 11.1746 5.62939 9.9818 5.62939ZM9.9818 13.0055C9.41243 13.0055 8.85584 12.8367 8.38243 12.5203C7.90901 12.204 7.54002 11.7544 7.32213 11.2284C7.10424 10.7023 7.04723 10.1235 7.15831 9.56507C7.26939 9.00664 7.54357 8.49368 7.94618 8.09108C8.34879 7.68847 8.86174 7.41429 9.42018 7.30321C9.97861 7.19213 10.5574 7.24914 11.0835 7.46703C11.6095 7.68492 12.0591 8.0539 12.3754 8.52732C12.6918 9.00074 12.8606 9.55733 12.8606 10.1267C12.8554 10.8874 12.55 11.6152 12.0108 12.1518C11.4717 12.6885 10.7425 12.9905 9.9818 12.9922V13.0055Z" fill="white" fill-opacity="0.5"/>
<path d="M13.5505 19.2406H6.254C4.80195 19.2354 3.41108 18.6553 2.38557 17.6273C1.36005 16.5993 0.78336 15.207 0.781616 13.755L0.781616 6.45847C0.786876 5.00642 1.36694 3.61555 2.39494 2.59003C3.42294 1.56452 4.81521 0.987828 6.26727 0.986084L13.5638 0.986084C15.0181 0.987839 16.4124 1.56635 17.4408 2.59473C18.4692 3.62311 19.0477 5.01739 19.0494 6.47173V13.7682C19.0442 15.2226 18.4623 16.6155 17.4314 17.6414C16.4005 18.6673 15.0049 19.2424 13.5505 19.2406ZM6.26727 2.70408C5.26856 2.70583 4.31126 3.10335 3.60507 3.80954C2.89888 4.51573 2.50137 5.47303 2.49961 6.47173V13.7682C2.50137 14.767 2.89888 15.7242 3.60507 16.4304C4.31126 17.1366 5.26856 17.5341 6.26727 17.5359H13.5638C14.5625 17.5341 15.5198 17.1366 16.226 16.4304C16.9322 15.7242 17.3297 14.767 17.3314 13.7682V6.47173C17.3297 5.47303 16.9322 4.51573 16.226 3.80954C15.5198 3.10335 14.5625 2.70583 13.5638 2.70408H6.26727Z" fill="white" fill-opacity="0.5"/>
</g>
<defs>
<clipPath id="clip0_174_87">
<rect width="18.2545" height="18.2545" fill="white" transform="translate(0.781616 0.986084)"/>
</clipPath>
</defs>
</svg>
