<svg width="16" height="13" viewBox="0 0 16 13" fill="none" xmlns="http://www.w3.org/2000/svg">
<path d="M1.04796 5.7944C1.04796 5.7944 7.6625 3.07692 9.95693 2.12132C10.8329 1.74306 13.8142 0.518697 13.8142 0.518697C13.8142 0.518697 15.1928 -0.0188278 15.0634 1.28517C15.0236 1.81772 14.715 3.6891 14.4114 5.71477C13.9535 8.58157 13.4558 11.7171 13.4558 11.7171C13.4558 11.7171 13.3812 12.5981 12.7292 12.7474C12.0772 12.8967 11.0121 12.2148 10.818 12.0606C10.6239 11.9063 7.9661 10.229 6.97566 9.36795C6.87471 9.29936 6.79266 9.20645 6.73708 9.09779C6.6815 8.98913 6.65419 8.86822 6.65766 8.74623C6.66113 8.62423 6.69528 8.50507 6.75694 8.39974C6.81861 8.29442 6.90581 8.20632 7.0105 8.14359C8.38915 6.87941 10.0316 5.33651 11.027 4.3411C11.4849 3.88321 11.9428 2.81313 10.0316 4.11215C7.31908 5.98353 4.64141 7.74044 4.64141 7.74044C4.36637 7.86519 4.06895 7.93303 3.76702 7.93987C3.4651 7.94671 3.1649 7.89242 2.8845 7.78026C1.73479 7.43684 0.395958 6.97895 0.395958 6.97895C0.395958 6.97895 -0.524802 6.40659 1.04298 5.7944H1.04796Z" fill="white" fill-opacity="0.5"/>
</svg>
