<svg width="30" height="38" viewBox="0 0 30 38" fill="none" xmlns="http://www.w3.org/2000/svg">
<path d="M26.4755 9.31378C24.6091 9.31378 23.0966 10.8113 23.0966 12.6591V17.7527C23.0966 17.9015 23.0687 18.0253 23.0182 18.1436C22.9436 18.3196 22.8103 18.4803 22.6463 18.5889C22.4802 18.6975 22.3036 18.7573 22.0815 18.7583H20.4466V5.31252C20.4466 2.37819 18.0445 0 15.0807 0C12.1169 0 9.71478 2.37826 9.71478 5.31252V20.9884H8.72325C8.55818 20.9884 8.41833 20.9574 8.28506 20.902C8.08709 20.82 7.90777 20.6734 7.78546 20.4937C7.66367 20.3113 7.59685 20.1141 7.5951 19.8714V17.2499C7.5951 15.4027 6.08255 13.9046 4.21618 13.9046C2.35039 13.9046 0.83777 15.4028 0.83777 17.2499V19.8714C0.837185 20.94 1.05825 21.9755 1.45865 22.911C2.05972 24.3168 3.05571 25.5021 4.31165 26.3432C5.56643 27.1848 7.10207 27.6794 8.72325 27.6784H9.71478V37.0574H20.4466V25.4484H22.0815C23.1455 25.449 24.176 25.2329 25.1078 24.8425C26.5075 24.2555 27.6871 23.2846 28.5246 22.0581C29.3621 20.8336 29.8556 19.3351 29.854 17.7528V12.6592C29.8539 10.8113 28.3413 9.31378 26.4755 9.31378Z" fill="#FFE000"/>
</svg>
