<svg width="33" height="32" viewBox="0 0 33 32" fill="none" xmlns="http://www.w3.org/2000/svg">
<path d="M18.4977 12.7872L19.7542 12.7806C20.5514 11.9541 21.5138 10.9713 22.7715 11.0442C24.034 10.977 24.9915 11.9426 25.7889 12.7806C26.3224 12.8009 27.3524 12.7224 27.8518 12.9069V4.98981H5.6759V17.6307H14.862L15.4871 17.0053L15.5006 15.7611C15.5079 14.9758 15.8258 14.2246 16.3861 13.6686C16.9464 13.1127 17.7044 12.7962 18.4977 12.7872ZM10.0439 10.0129C8.72269 9.9932 8.71531 8.03812 10.0439 8.01692H23.4838C24.8034 8.04007 24.8111 9.98816 23.4838 10.0129H10.0439Z" fill="#FFE000"/>
<path d="M31.8838 3.98174e-06H1.64398C1.37758 -0.000741602 1.12177 0.103248 0.932765 0.289126C0.743759 0.475004 0.637015 0.727564 0.635986 0.991316V21.6226C0.636762 21.887 0.743211 22.1404 0.932078 22.3274C1.12095 22.5144 1.37688 22.6198 1.64398 22.6205H15.131C14.2378 21.8389 13.5772 20.8143 13.7668 19.6266H4.66797C4.40087 19.6259 4.14493 19.5205 3.95606 19.3335C3.7672 19.1465 3.66075 18.8931 3.65997 18.6287V3.99186C3.65978 3.86076 3.68573 3.7309 3.73632 3.60974C3.78691 3.48858 3.86115 3.37849 3.95479 3.28579C4.04843 3.19308 4.15962 3.11958 4.282 3.06949C4.40438 3.0194 4.53554 2.99371 4.66797 2.9939H28.8598C29.1269 2.99466 29.3829 3.10004 29.5718 3.28703C29.7606 3.47403 29.8671 3.72742 29.8678 3.99186V14.7765C30.1234 15.3398 30.0381 16.3914 30.056 17.0053L30.9431 17.8901C32.3607 19.3707 31.9307 21.3958 30.4122 22.6205H31.8838C32.1506 22.6187 32.4058 22.5129 32.5945 22.3262C32.7831 22.1394 32.8899 21.8867 32.8918 21.6226V0.991316C32.8897 0.727915 32.7825 0.476011 32.5938 0.290377C32.405 0.104742 32.1499 0.000388012 31.8838 3.98174e-06Z" fill="#FFE000"/>
<path d="M28.5709 27.1845L25.7889 27.2045L24.5052 28.4553L25.505 31.1801C25.5277 31.2419 25.5684 31.2957 25.622 31.3346C25.6756 31.3736 25.7396 31.3959 25.806 31.3988C25.8723 31.4017 25.9381 31.385 25.9949 31.3509C26.0517 31.3168 26.0971 31.2668 26.1252 31.2072L27.0589 29.2271L29.051 30.1501C29.1113 30.178 29.1785 30.1876 29.2442 30.1776C29.3099 30.1677 29.3712 30.1387 29.4202 30.0942C29.4692 30.0498 29.5039 29.992 29.5197 29.928C29.5355 29.8641 29.5318 29.797 29.5091 29.7351L28.5709 27.1845Z" fill="#FFE000"/>
<path d="M16.979 27.1845L16.0408 29.7351C16.018 29.797 16.0143 29.8641 16.0302 29.928C16.046 29.992 16.0806 30.0498 16.1297 30.0942C16.1787 30.1387 16.24 30.1677 16.3057 30.1777C16.3714 30.1876 16.4386 30.178 16.4988 30.1501L18.491 29.2271L19.425 31.2079C19.4531 31.2675 19.4984 31.3175 19.5552 31.3516C19.612 31.3857 19.6777 31.4023 19.7441 31.3994C19.8104 31.3965 19.8744 31.3742 19.9279 31.3354C19.9815 31.2965 20.0222 31.2427 20.0449 31.1809L21.0447 28.4619L19.7543 27.2045L16.979 27.1845Z" fill="#FFE000"/>
<path d="M28.0481 17.8286L28.033 15.7728C28.031 15.5113 27.9252 15.261 27.7384 15.076C27.5515 14.891 27.2987 14.7862 27.0345 14.7843L24.9581 14.7694L23.4797 13.3267C23.2916 13.1431 23.0379 13.0402 22.7737 13.0402C22.5095 13.0402 22.2559 13.1431 22.0677 13.3267L20.5895 14.7694L18.5131 14.7843C18.2489 14.7862 17.996 14.8909 17.8092 15.0759C17.6223 15.2608 17.5165 15.5112 17.5146 15.7728L17.4994 17.8285L16.0423 19.292C15.8568 19.4783 15.7528 19.7295 15.7528 19.9911C15.7528 20.2527 15.8568 20.5038 16.0423 20.6901L17.4994 22.1537L17.5145 24.2094C17.5164 24.471 17.6223 24.7213 17.8091 24.9063C17.9959 25.0913 18.2488 25.1961 18.513 25.198L20.5893 25.2129L22.0677 26.6556C22.2559 26.8392 22.5095 26.9421 22.7738 26.9421C23.038 26.9421 23.2916 26.8392 23.4798 26.6556L24.958 25.2129L27.0344 25.198C27.2986 25.1961 27.5514 25.0913 27.7382 24.9064C27.9251 24.7214 28.0309 24.4711 28.0328 24.2095L28.0481 22.1537L29.5051 20.6902C29.6906 20.5039 29.7946 20.2528 29.7946 19.9912C29.7946 19.7296 29.6906 19.4784 29.5051 19.2922L28.0481 17.8286ZM22.7738 22.6524C19.2209 22.5439 19.2215 17.4379 22.7738 17.3299C26.3267 17.4386 26.3259 22.5443 22.7738 22.6524Z" fill="#FFE000"/>
</svg>
