<svg width="14" height="14" viewBox="0 0 14 14" fill="none" xmlns="http://www.w3.org/2000/svg">
<path d="M4.96839 0.956249C4.73738 0.378707 4.17803 0 3.55602 0H1.46382C0.667912 0 0.0227051 0.645068 0.0227051 1.44099C0.0227051 8.20635 5.50712 13.6909 12.2723 13.6909C13.0682 13.6909 13.7133 13.0456 13.7133 12.2497L13.7136 10.1571C13.7136 9.53508 13.335 8.97581 12.7575 8.74479L10.7522 7.94297C10.2335 7.73545 9.64282 7.82885 9.21359 8.18655L8.69606 8.61819C8.09166 9.12187 7.20236 9.08181 6.64604 8.52548L5.18878 7.06684C4.63246 6.5105 4.59135 5.6219 5.09501 5.01748L5.52656 4.49998C5.88425 4.07073 5.97847 3.4799 5.77096 2.96111L4.96839 0.956249Z" fill="#D9D9D9" fill-opacity="0.7"/>
</svg>
