<svg width="40" height="40" viewBox="0 0 40 40" fill="none" xmlns="http://www.w3.org/2000/svg">
<path d="M36.6667 25V15C36.6667 6.66671 33.3333 3.33337 25 3.33337H15C6.66666 3.33337 3.33333 6.66671 3.33333 15V25C3.33333 33.3334 6.66666 36.6667 15 36.6667H25C33.3333 36.6667 36.6667 33.3334 36.6667 25Z" stroke="white" stroke-width="2" stroke-linecap="round" stroke-linejoin="round"/>
<path d="M4.2 11.85H35.8" stroke="white" stroke-width="2" stroke-linecap="round" stroke-linejoin="round"/>
<path d="M14.2 3.51672V11.6167" stroke="white" stroke-width="2" stroke-linecap="round" stroke-linejoin="round"/>
<path d="M25.8 3.51672V10.8667" stroke="white" stroke-width="2" stroke-linecap="round" stroke-linejoin="round"/>
<path d="M16.25 24.0833V22.0833C16.25 19.5167 18.0667 18.4667 20.2833 19.75L22.0167 20.75L23.75 21.75C25.9667 23.0333 25.9667 25.1333 23.75 26.4167L22.0167 27.4167L20.2833 28.4167C18.0667 29.7 16.25 28.65 16.25 26.0833V24.0833V24.0833Z" stroke="white" stroke-width="2" stroke-miterlimit="10" stroke-linecap="round" stroke-linejoin="round"/>
</svg>
