<svg width="20" height="14" viewBox="0 0 20 14" fill="none" xmlns="http://www.w3.org/2000/svg">
<path d="M19.3303 4.31128C19.3303 3.24 18.9052 2.21251 18.1482 1.45443C17.3913 0.696358 16.3644 0.26967 15.2932 0.268066L4.96118 0.268066C3.88885 0.268066 2.86045 0.694046 2.1022 1.4523C1.34395 2.21054 0.917969 3.23895 0.917969 4.31128L0.917969 9.11713C0.917969 10.1895 1.34395 11.2179 2.1022 11.9761C2.86045 12.7344 3.88885 13.1603 4.96118 13.1603H15.2932C16.3644 13.1587 17.3913 12.732 18.1482 11.974C18.9052 11.2159 19.3303 10.1884 19.3303 9.11713V4.31128ZM13.2776 7.07131L8.62307 9.34713C8.44149 9.44397 7.82411 9.34713 7.82411 9.10502V4.42023C7.82411 4.20838 8.42938 4.08127 8.62912 4.18417L13.0597 6.60525C13.2473 6.7021 13.441 6.96842 13.2534 7.07131H13.2776Z" fill="white" fill-opacity="0.5"/>
</svg>
